<svg xmlns="http://www.w3.org/2000/svg" xmlns:xlink="http://www.w3.org/1999/xlink" width="500" zoomAndPan="magnify" viewBox="0 0 375 374.999991" height="500" preserveAspectRatio="xMidYMid meet" version="1.0"><defs><g/><clipPath id="f33751e3fb"><path d="M 92.203125 92.203125 L 282.796875 92.203125 L 282.796875 282.796875 L 92.203125 282.796875 Z M 92.203125 92.203125 " clip-rule="nonzero"/></clipPath><clipPath id="50284914d1"><path d="M 187.5 92.203125 C 134.867188 92.203125 92.203125 134.867188 92.203125 187.5 C 92.203125 240.132812 134.867188 282.796875 187.5 282.796875 C 240.132812 282.796875 282.796875 240.132812 282.796875 187.5 C 282.796875 134.867188 240.132812 92.203125 187.5 92.203125 Z M 187.5 92.203125 " clip-rule="nonzero"/></clipPath></defs><g clip-path="url(#f33751e3fb)"><g clip-path="url(#50284914d1)"><path fill="#ffffff" d="M 92.203125 92.203125 L 282.796875 92.203125 L 282.796875 282.796875 L 92.203125 282.796875 Z M 92.203125 92.203125 " fill-opacity="1" fill-rule="nonzero"/></g></g><g fill="#000000" fill-opacity="1"><g transform="translate(153.486323, 217.499986)"><g><path d="M 44.359375 -9.421875 L 23.578125 -9.421875 L 20.5 0 L 0 0 L 22.796875 -62.296875 L 45.3125 -62.296875 L 68.03125 0 L 47.4375 0 Z M 39.59375 -24.109375 L 33.96875 -41.453125 L 28.34375 -24.109375 Z M 39.59375 -24.109375 "/></g></g></g></svg>